<svg width="19" height="20" viewBox="0 0 19 20" fill="none" xmlns="http://www.w3.org/2000/svg">
  <path
    d="M10.8999 5.2672L10.6437 5.01058V5.37317V12.8119C10.6437 13.1218 10.5206 13.419 10.3015 13.6381C10.0824 13.8572 9.78516 13.9803 9.47527 13.9803C9.16538 13.9803 8.86818 13.8572 8.64905 13.6381C8.42992 13.419 8.30682 13.1218 8.30682 12.8119V5.37317V5.01081L8.0507 5.26715L6.5728 6.74637C6.57279 6.74639 6.57277 6.7464 6.57276 6.74642C6.35333 6.96566 6.0558 7.08877 5.74561 7.08866C5.4354 7.08855 5.13794 6.96522 4.91866 6.74579C4.69939 6.52636 4.57626 6.22881 4.57637 5.9186C4.57648 5.60839 4.69982 5.31092 4.91925 5.09165L8.64915 1.36438L8.64949 1.36404C8.75771 1.2552 8.88638 1.16883 9.0281 1.10989C9.16981 1.05095 9.32178 1.02061 9.47527 1.02061C9.62875 1.02061 9.78073 1.05095 9.92244 1.10989C10.0642 1.16883 10.1928 1.2552 10.301 1.36404L10.3014 1.36436L14.0312 5.09289C14.0312 5.0929 14.0312 5.09291 14.0312 5.09291C14.0312 5.09292 14.0313 5.09294 14.0313 5.09295C14.1398 5.20159 14.2259 5.33054 14.2846 5.47245C14.3434 5.61437 14.3736 5.76648 14.3735 5.92008C14.3735 6.07368 14.3431 6.22577 14.2843 6.36766C14.2255 6.50955 14.1393 6.63846 14.0306 6.74703C13.922 6.85561 13.793 6.94172 13.6511 7.00045C13.5092 7.05918 13.357 7.08938 13.2034 7.08932C13.0498 7.08927 12.8978 7.05896 12.7559 7.00013C12.614 6.94131 12.4851 6.85513 12.3766 6.7465C12.3765 6.74649 12.3765 6.74647 12.3765 6.74645L10.8999 5.2672ZM2.883 11.2696H2.733V11.4196V16.6934V16.8434H2.883H16.0675H16.2175V16.6934V11.4196V11.2696H16.0675H14.7491C14.4392 11.2696 14.142 11.1465 13.9229 10.9274C13.7037 10.7082 13.5806 10.411 13.5806 10.1011C13.5806 9.79125 13.7037 9.49405 13.9229 9.27493C14.142 9.0558 14.4392 8.93269 14.7491 8.93269H16.0675C16.7271 8.93269 17.3597 9.19471 17.826 9.66109C18.2924 10.1275 18.5544 10.76 18.5544 11.4196V16.6934C18.5544 17.353 18.2924 17.9855 17.826 18.4519C17.3597 18.9183 16.7271 19.1803 16.0675 19.1803H2.883C2.22343 19.1803 1.59088 18.9183 1.12449 18.4519C0.658106 17.9855 0.396094 17.353 0.396094 16.6934V11.4196C0.396094 10.76 0.658107 10.1275 1.12449 9.66109C1.59088 9.19471 2.22343 8.93269 2.883 8.93269H4.20145C4.51135 8.93269 4.80855 9.0558 5.02768 9.27493C5.2468 9.49405 5.36991 9.79125 5.36991 10.1011C5.36991 10.411 5.2468 10.7082 5.02768 10.9274C4.80855 11.1465 4.51135 11.2696 4.20145 11.2696H2.883Z"
    fill="url(#paint0_linear)" stroke="white" stroke-width="0.3"/>
  <defs>
    <linearGradient id="paint0_linear" x1="6.42349" y1="11.2119" x2="11.055" y2="11.5614"
                    gradientUnits="userSpaceOnUse">
      <stop offset="0" stop-color="#2B3755"/>
      <stop offset="1" stop-color="#1C243C"/>
    </linearGradient>
  </defs>
</svg>
