<svg width="15" height="10" viewBox="0 0 15 10" fill="none" xmlns="http://www.w3.org/2000/svg">
<path fill-rule="evenodd" clip-rule="evenodd" d="M14.0104 1.39312C14.0104 1.74283 13.8728 2.07134 13.6365 2.29985L6.11946 9.58162C5.85543 9.823 5.51021 9.96188 5.16343 9.96188C4.81329 9.96188 4.47094 9.82074 4.22743 9.58534L0.458919 5.9426C0.222527 5.71409 0.0849609 5.38558 0.0849609 5.03586C0.0849609 4.70495 0.224786 4.38678 0.47517 4.12928C0.731972 3.89625 1.05987 3.76623 1.41861 3.75261C1.76848 3.75441 2.09349 3.88179 2.35112 4.11737L5.16343 6.83584L11.7443 0.474621C12.0019 0.23904 12.3269 0.111659 12.6768 0.109863C13.0379 0.123569 13.3648 0.255054 13.6203 0.502017C13.867 0.740457 14.0104 1.05749 14.0104 1.39312Z" fill="#FCFCFC"/>
</svg>
