<svg width="25" height="25" viewBox="0 0 25 20" fill="none" xmlns="http://www.w3.org/2000/svg">
<g filter="url(#filter0_d)">
<path d="M20.3817 14.593L20.3808 14.5921L15.5085 9.89731L15.5082 9.89708L14.404 8.84702L20.3808 3.10238C20.5057 2.98227 20.6074 2.84853 20.6715 2.70082C20.7345 2.55546 20.7728 2.39687 20.7728 2.23715C20.7728 2.06937 20.748 1.90937 20.6708 1.7602C20.6084 1.61669 20.5203 1.47094 20.4051 1.36025L20.4051 1.3602L20.4032 1.35848C20.2793 1.25135 20.1409 1.15416 19.9881 1.09295C19.8347 1.03152 19.6578 1.00762 19.4956 1.00762C19.3302 1.00762 19.1663 1.04429 19.0044 1.10415L19.0044 1.10413L19.0031 1.10463C18.8503 1.16583 18.7114 1.26322 18.5983 1.37193L11.721 7.98198C11.6064 8.09222 11.5177 8.22639 11.4546 8.37186L11.4546 8.37185L11.4541 8.37317C11.3917 8.52913 11.3533 8.68736 11.3533 8.84721C11.3533 9.00693 11.3916 9.16552 11.4546 9.31088C11.5177 9.45635 11.6064 9.59053 11.721 9.70076L18.5983 16.3108L18.5982 16.3108L18.5992 16.3117C18.8403 16.5313 19.1565 16.6401 19.4834 16.6401C19.8127 16.6401 20.1287 16.5064 20.3565 16.2875C20.5964 16.0568 20.7239 15.7641 20.7242 15.4466C20.7366 15.1284 20.6091 14.8237 20.3817 14.593Z" fill="#181725" stroke="#181725" stroke-width="0.1"/>
<path d="M5.35263 3.05495L5.35355 3.05586L10.2259 7.75064L10.2262 7.75087L11.3304 8.80093L5.35359 14.5456C5.22863 14.6657 5.12693 14.7994 5.0629 14.9471C4.99988 15.0925 4.96157 15.2511 4.96157 15.4108C4.96157 15.5786 4.98641 15.7386 5.06359 15.8878C5.12599 16.0313 5.21412 16.177 5.32929 16.2877L5.32924 16.2878L5.33122 16.2895C5.45507 16.3966 5.59349 16.4938 5.74632 16.555C5.89971 16.6164 6.07654 16.6403 6.23878 16.6403C6.40414 16.6403 6.56807 16.6037 6.72999 16.5438L6.72999 16.5438L6.73124 16.5433C6.88407 16.4821 7.02302 16.3847 7.13612 16.276L14.0133 9.66596C14.128 9.55573 14.2167 9.42156 14.2797 9.27609L14.2797 9.2761L14.2803 9.27478C14.3427 9.11882 14.3811 8.96059 14.3811 8.80074C14.3811 8.64102 14.3427 8.48243 14.2797 8.33707C14.2167 8.1916 14.128 8.05742 14.0133 7.94719L7.13612 1.33713L7.13613 1.33712L7.13513 1.33621C6.89403 1.11667 6.57783 1.00786 6.25093 1.00786C5.92171 1.00786 5.60563 1.1416 5.37789 1.36049C5.13794 1.59112 5.01044 1.88387 5.01017 2.20136C4.99773 2.51959 5.12527 2.82429 5.35263 3.05495Z" fill="#181725" stroke="#181725" stroke-width="0.1"/>
</g>
<defs>
<filter id="filter0_d" x="0.911133" y="0.95752" width="23.9121" height="23.733" filterUnits="userSpaceOnUse" color-interpolation-filters="sRGB">
<feFlood flood-opacity="0" result="BackgroundImageFix"/>
<feColorMatrix in="SourceAlpha" type="matrix" values="0 0 0 0 0 0 0 0 0 0 0 0 0 0 0 0 0 0 127 0"/>
<feOffset dy="4"/>
<feGaussianBlur stdDeviation="2"/>
<feColorMatrix type="matrix" values="0 0 0 0 0 0 0 0 0 0 0 0 0 0 0 0 0 0 0.25 0"/>
<feBlend mode="normal" in2="BackgroundImageFix" result="effect1_dropShadow"/>
<feBlend mode="normal" in="SourceGraphic" in2="effect1_dropShadow" result="shape"/>
</filter>
</defs>
</svg>
