<svg width="10" height="10" viewBox="0 0 17 19" fill="none" xmlns="http://www.w3.org/2000/svg">
  <path fill-rule="evenodd" clip-rule="evenodd"
        d="M11.4936 1.30771C10.5784 0.912527 9.59343 0.704559 8.59664 0.696063C7.59314 0.680524 6.59697 0.869348 5.66876 1.25104C4.74056 1.63273 3.89973 2.19931 3.19745 2.91629C1.77156 4.36029 0.96449 6.3031 0.947532 8.33238C0.930574 10.3617 1.70506 12.3177 3.10662 13.7853L7.70855 18.5487C7.80117 18.6459 7.91225 18.7236 8.03528 18.7774C8.15832 18.8311 8.29084 18.8597 8.42507 18.8616C8.55912 18.8646 8.69229 18.8392 8.8158 18.787C8.93931 18.7348 9.05035 18.657 9.1416 18.5588L13.8243 13.8661C15.2515 12.4234 16.0604 10.4813 16.0793 8.45201C16.0981 6.42272 15.3254 4.46596 13.9252 2.99703C13.2355 2.27728 12.4087 1.70289 11.4936 1.30771ZM8.43489 11.0057C9.78392 11.0057 10.8775 9.91209 10.8775 8.56305C10.8775 7.21401 9.78392 6.1204 8.43489 6.1204C7.08585 6.1204 5.99223 7.21402 5.99223 8.56305C5.99223 9.91209 7.08585 11.0057 8.43489 11.0057Z"
        fill="url(#paint0_linear)"/>
  <defs>
    <linearGradient id="paint0_linear" x1="11.0153" y1="8.68469" x2="7.21175" y2="8.44563"
                    gradientUnits="userSpaceOnUse">
      <stop offset="0" stop-color="#2B3755"/>
      <stop offset="1" stop-color="#1C243C"/>
    </linearGradient>
  </defs>
</svg>
