<svg width="241" height="239" viewBox="0 0 241 239" fill="none" xmlns="http://www.w3.org/2000/svg">
<path d="M27.945 109.463C28.3661 109.982 28.5383 110.546 28.4616 111.156C28.3886 111.763 28.0859 112.358 27.5537 112.94L27.5802 112.973C28.3445 112.491 29.042 112.268 29.6728 112.304C30.3042 112.333 30.8349 112.612 31.2649 113.142C31.8656 113.882 32.0451 114.696 31.8033 115.584C31.5651 116.47 30.9363 117.326 29.9168 118.154C28.8575 119.014 27.894 119.558 27.0265 119.787L26.1033 118.649C26.5907 118.531 27.0888 118.34 27.5978 118.077C28.1104 117.812 28.5481 117.532 28.9109 117.237C30.3076 116.103 30.635 115.079 29.8929 114.165C29.5513 113.744 29.0802 113.594 28.4798 113.714C27.8829 113.832 27.1727 114.225 26.3492 114.893L25.3914 115.67L24.5433 114.626L25.4412 113.897C27.0266 112.61 27.4763 111.544 26.7901 110.698C26.5162 110.361 26.1638 110.205 25.7326 110.23C25.3052 110.252 24.8483 110.46 24.3622 110.855C23.9776 111.167 23.6524 111.515 23.3866 111.899C23.1208 112.284 22.8997 112.749 22.7233 113.295L21.4146 112.895C21.7715 111.667 22.5032 110.603 23.6097 109.705C24.4514 109.022 25.2628 108.661 26.0442 108.623C26.8255 108.584 27.4591 108.865 27.945 109.463Z" fill="white" fill-opacity="0.28"/>
<path d="M32.803 113.78L33.4179 113.281C33.1636 111.892 32.7283 110.455 32.1121 108.969C31.4958 107.484 30.7496 106.097 29.8735 104.81L33.9822 101.475L39.5346 108.316L40.5631 107.481L43.2488 110.79L41.9972 111.806L40.217 109.613L34.9602 113.88L36.7403 116.073L35.4887 117.089L32.803 113.78ZM31.8763 105.053C32.4649 105.942 33.0377 107.063 33.5947 108.416C34.1487 109.766 34.5469 111.016 34.7893 112.168L38.234 109.372L33.5959 103.658L31.8763 105.053Z" fill="white" fill-opacity="0.28"/>
<path d="M46.5841 97.8272C47.6354 99.1224 48.1279 100.393 48.0616 101.638C47.9989 102.881 47.3744 103.983 46.1881 104.946C44.9872 105.921 43.7753 106.315 42.5524 106.128C41.3301 105.935 40.1859 105.181 39.1199 103.868C38.0539 102.555 37.5581 101.284 37.6326 100.056C37.7107 98.825 38.3502 97.7222 39.551 96.7475C40.7337 95.7875 41.938 95.4027 43.1639 95.5932C44.3898 95.7838 45.5299 96.5284 46.5841 97.8272ZM40.511 102.757C41.3061 103.736 42.1075 104.32 42.9152 104.507C43.72 104.69 44.5106 104.466 45.2869 103.836C46.0597 103.209 46.4388 102.486 46.4242 101.667C46.4133 100.846 46.0058 99.9396 45.2019 98.9492C44.4097 97.9733 43.6131 97.3922 42.8119 97.206C42.0144 97.0168 41.2293 97.2358 40.4566 97.863C39.6765 98.4962 39.2917 99.2269 39.3019 100.055C39.3158 100.88 39.7188 101.781 40.511 102.757Z" fill="white" fill-opacity="0.28"/>
<path d="M52.2929 90.6025C52.9673 91.4333 53.212 92.2909 53.0271 93.1752C52.8421 94.0595 52.2472 94.9096 51.2423 95.7253L50.4151 96.3967L52.8313 99.3734L51.5307 100.429L45.0727 92.4731L47.3638 90.6134C48.3578 89.8065 49.2665 89.406 50.0897 89.4119C50.9165 89.4147 51.6509 89.8116 52.2929 90.6025ZM49.5272 95.3029L50.2184 94.7419C50.8859 94.2 51.2814 93.6864 51.405 93.2009C51.5285 92.7155 51.39 92.2261 50.9895 91.7327C50.6185 91.2756 50.202 91.0479 49.7401 91.0497C49.2781 91.0516 48.7515 91.2925 48.1601 91.7725L47.2568 92.5057L49.5272 95.3029Z" fill="white" fill-opacity="0.28"/>
<path d="M62.2132 85.141C63.2645 86.4361 63.757 87.7064 63.6907 88.9519C63.628 90.1944 63.0035 91.2971 61.8172 92.2601C60.6163 93.2348 59.4044 93.6287 58.1815 93.4418C56.9592 93.2484 55.815 92.495 54.749 91.1817C53.683 89.8684 53.1872 88.5977 53.2617 87.3697C53.3398 86.1388 53.9793 85.0359 55.1801 84.0612C56.3628 83.1012 57.5671 82.7165 58.793 82.907C60.0189 83.0975 61.159 83.8422 62.2132 85.141ZM56.1401 90.0706C56.9352 91.0501 57.7366 91.6334 58.5443 91.8203C59.3491 92.0036 60.1397 91.7801 60.9161 91.1499C61.6888 90.5227 62.0679 89.7997 62.0533 88.981C62.0424 88.1594 61.6349 87.2534 60.831 86.2629C60.0389 85.287 59.2422 84.7059 58.4411 84.5197C57.6435 84.3305 56.8584 84.5495 56.0857 85.1768C55.3057 85.8099 54.9208 86.5406 54.931 87.3688C54.9449 88.1941 55.3479 89.0947 56.1401 90.0706Z" fill="white" fill-opacity="0.28"/>
<path d="M60.7018 79.7868L63.0636 77.8697C64.1593 76.9804 65.0797 76.4981 65.825 76.4227C66.5739 76.3444 67.2281 76.6499 67.7877 77.3392C68.1646 77.8036 68.3585 78.2872 68.3694 78.7899C68.3802 79.2926 68.1931 79.7665 67.808 80.2114L67.8522 80.2659C68.4963 79.9176 69.0756 79.7934 69.5901 79.8934C70.1052 79.9868 70.5778 80.2983 71.0077 80.828C71.5878 81.5427 71.7925 82.3064 71.6216 83.1191C71.4515 83.9253 70.922 84.6891 70.0331 85.4106L67.1598 87.7429L60.7018 79.7868ZM64.6705 82.018L65.9221 81.002C66.4663 80.5603 66.7943 80.1526 66.9063 79.7789C67.0152 79.4016 66.9019 79.0061 66.5662 78.5925C66.2628 78.2188 65.9074 78.059 65.4999 78.113C65.0959 78.164 64.6001 78.428 64.0124 78.9051L62.8859 79.8195L64.6705 82.018ZM65.5274 83.0737L67.5726 85.5933L68.9548 84.4713C69.499 84.0296 69.825 83.5935 69.9329 83.1629C70.0415 82.7257 69.9131 82.2822 69.548 81.8323C69.2123 81.4187 68.822 81.227 68.377 81.2572C67.9321 81.2873 67.4212 81.5365 66.8443 82.0048L65.5274 83.0737Z" fill="white" fill-opacity="0.28"/>
<path d="M78.119 74.8752C78.7521 75.6552 78.972 76.4637 78.7787 77.3006C78.5861 78.131 77.9928 78.9496 76.9988 79.7565L74.5173 81.7708L68.0593 73.8147L69.3599 72.759L71.9837 75.9915L73.1102 75.0771C74.1188 74.2585 75.0531 73.834 75.9133 73.8039C76.7742 73.7671 77.5094 74.1242 78.119 74.8752ZM74.93 79.6212L76.0238 78.7334C76.6079 78.2593 76.9735 77.794 77.1206 77.3376C77.2684 76.8746 77.1568 76.4145 76.7857 75.9574C76.4382 75.5293 76.0329 75.3377 75.5699 75.3826C75.1068 75.4275 74.5215 75.737 73.8141 76.3113L72.8672 77.0799L74.93 79.6212Z" fill="white" fill-opacity="0.28"/>
<path d="M86.1575 72.3223L81.657 75.9754L75.199 68.0193L79.6995 64.3663L80.5918 65.4656L77.3919 68.0629L79.15 70.2288L82.1485 67.7949L83.0319 68.8832L80.0334 71.3171L82.0609 73.815L85.2608 71.2176L86.1575 72.3223Z" fill="white" fill-opacity="0.28"/>
<path d="M30.851 176.147C31.9023 177.442 32.3948 178.712 32.3284 179.957C32.2657 181.2 31.6412 182.303 30.4549 183.266C29.2541 184.24 28.0422 184.634 26.8192 184.447C25.5969 184.254 24.4528 183.501 23.3868 182.187C22.3207 180.874 21.825 179.603 21.8994 178.375C21.9775 177.144 22.617 176.042 23.8179 175.067C25.0006 174.107 26.2049 173.722 27.4308 173.913C28.6567 174.103 29.7967 174.848 30.851 176.147ZM24.7778 181.076C25.5729 182.056 26.3743 182.639 27.1821 182.826C27.9868 183.009 28.7774 182.786 29.5538 182.156C30.3265 181.528 30.7056 180.805 30.6911 179.987C30.6801 179.165 30.2727 178.259 29.4687 177.269C28.6766 176.293 27.8799 175.712 27.0788 175.525C26.2813 175.336 25.4961 175.555 24.7234 176.182C23.9434 176.816 23.5585 177.546 23.5688 178.374C23.5827 179.2 23.9857 180.1 24.7778 181.076Z" fill="white" fill-opacity="0.28"/>
<path d="M42.0721 173.655L40.766 174.716L37.8551 171.129L34.1872 174.107L37.0982 177.693L35.7976 178.748L29.3396 170.792L30.6402 169.737L33.2817 172.991L36.9495 170.014L34.308 166.759L35.6141 165.699L42.0721 173.655Z" fill="white" fill-opacity="0.28"/>
<path d="M50.1369 167.109L48.8363 168.165L43.2839 161.324L41.0201 163.162C42.6181 165.716 43.6702 167.483 44.1763 168.463C44.6861 169.439 44.9189 170.219 44.8749 170.803C44.8279 171.382 44.5425 171.876 44.0185 172.283C43.7536 172.498 43.4647 172.657 43.1516 172.761L42.2726 171.678C42.553 171.601 42.7911 171.483 42.9871 171.324C43.2483 171.112 43.3248 170.791 43.2167 170.361C43.1092 169.925 42.7067 169.099 42.0092 167.884C41.3153 166.666 40.3228 165.013 39.0316 162.925L43.679 159.153L50.1369 167.109Z" fill="white" fill-opacity="0.28"/>
<path d="M57.1787 161.393L54.5908 159.829L51.5488 162.298L52.564 165.139L51.1927 166.252L47.6849 155.847L49.0998 154.699L58.561 160.271L57.1787 161.393ZM53.338 158.986L50.8345 157.425C50.6622 157.324 50.4005 157.158 50.0493 156.925C49.7017 156.69 49.4509 156.514 49.2969 156.398C49.5611 156.924 49.8139 157.528 50.0552 158.211L51.0198 160.868L53.338 158.986Z" fill="white" fill-opacity="0.28"/>
<path d="M53.1533 151.463L54.3451 150.495L57.7022 154.631C58.0526 155.063 58.3966 155.509 58.7341 155.969C59.0686 156.426 59.2938 156.737 59.4095 156.901L59.4585 156.862L58.3775 147.222L59.8958 145.99L66.3538 153.946L65.1566 154.918L61.826 150.814C61.3165 150.187 60.7326 149.397 60.0741 148.445L60.0306 148.48L61.135 158.182L59.6113 159.419L53.1533 151.463ZM56.0485 148.056C55.2794 148.681 54.6034 149.001 54.0204 149.017C53.4381 149.026 52.8635 148.722 52.2964 148.105L53.4556 147.164C53.6894 147.408 53.9032 147.571 54.0972 147.654C54.2948 147.735 54.4927 147.748 54.6908 147.696C54.8896 147.637 55.1396 147.485 55.4407 147.241C55.7962 146.952 56.0032 146.655 56.0616 146.349C56.1171 146.039 56.0175 145.686 55.7629 145.291L56.9438 144.333C57.3959 145.001 57.5475 145.636 57.3985 146.238C57.2495 146.841 56.7995 147.447 56.0485 148.056Z" fill="white" fill-opacity="0.28"/>
<path d="M74.7125 147.161L73.4065 148.221L70.4955 144.635L66.8277 147.612L69.7386 151.198L68.438 152.254L61.98 144.298L63.2806 143.242L65.9221 146.496L69.59 143.519L66.9485 140.265L68.2545 139.205L74.7125 147.161Z" fill="white" fill-opacity="0.28"/>
<path d="M108.247 106.743L110.332 114.439C110.586 115.382 110.711 116.114 110.707 116.635C110.7 117.153 110.584 117.622 110.361 118.044C110.141 118.463 109.79 118.868 109.308 119.26C108.887 119.602 108.453 119.864 108.005 120.047L107.056 118.877C107.526 118.729 107.955 118.498 108.344 118.183C108.674 117.915 108.885 117.612 108.976 117.272C109.069 116.927 109.035 116.47 108.875 115.902L101.211 112.454L102.615 111.315L107.795 113.726C108.276 113.962 108.587 114.128 108.73 114.222L108.785 114.178C108.73 114.066 108.662 113.871 108.581 113.594L106.887 107.847L108.247 106.743Z" fill="white" fill-opacity="0.28"/>
<path d="M113.5 104.14C112.753 104.746 112.38 105.488 112.382 106.365C112.384 107.242 112.763 108.147 113.52 109.08C114.312 110.055 115.116 110.627 115.933 110.795C116.753 110.96 117.553 110.726 118.333 110.093C118.67 109.819 118.97 109.521 119.233 109.2C119.492 108.875 119.75 108.521 120.006 108.139L120.911 109.255C120.479 109.997 119.867 110.689 119.076 111.331C117.912 112.277 116.732 112.651 115.536 112.453C114.338 112.252 113.206 111.495 112.14 110.182C111.468 109.355 111.032 108.509 110.829 107.644C110.63 106.776 110.683 105.945 110.989 105.149C111.294 104.354 111.833 103.642 112.606 103.015C113.418 102.356 114.308 101.916 115.274 101.698L115.685 103.161C115.313 103.252 114.939 103.372 114.561 103.522C114.184 103.666 113.83 103.872 113.5 104.14Z" fill="white" fill-opacity="0.28"/>
<path d="M128.794 103.263L127.493 104.318L121.941 97.4778L119.677 99.3154C121.275 101.87 122.327 103.637 122.833 104.616C123.343 105.593 123.576 106.373 123.532 106.956C123.485 107.536 123.2 108.029 122.676 108.437C122.411 108.652 122.122 108.811 121.809 108.915L120.93 107.832C121.21 107.754 121.448 107.636 121.644 107.477C121.905 107.265 121.982 106.944 121.874 106.515C121.766 106.078 121.364 105.252 120.666 104.037C119.972 102.819 118.98 101.166 117.689 99.0788L122.336 95.3065L128.794 103.263Z" fill="white" fill-opacity="0.28"/>
<path d="M130.493 88.6851L132.579 96.381C132.833 97.3243 132.958 98.0564 132.953 98.5775C132.946 99.095 132.831 99.5647 132.608 99.9866C132.388 100.406 132.037 100.811 131.554 101.203C131.133 101.544 130.699 101.806 130.252 101.989L129.302 100.819C129.772 100.672 130.202 100.441 130.59 100.126C130.92 99.8577 131.131 99.5541 131.223 99.2148C131.315 98.869 131.281 98.412 131.121 97.844L123.457 94.3966L124.861 93.2569L130.042 95.6689C130.522 95.9048 130.834 96.0701 130.977 96.1647L131.031 96.1205C130.976 96.0085 130.909 95.8138 130.828 95.5363L129.133 89.7894L130.493 88.6851Z" fill="white" fill-opacity="0.28"/>
<path d="M136.273 83.994L137.178 85.1096L133.755 87.888L139.308 94.7285L138.007 95.7842L131.549 87.8282L136.273 83.994Z" fill="white" fill-opacity="0.28"/>
<path d="M137.568 82.9427L138.76 81.9754L142.117 86.1112C142.467 86.5429 142.811 86.9889 143.149 87.4492C143.483 87.9058 143.708 88.2166 143.824 88.3814L143.873 88.3417L142.792 78.7022L144.31 77.4698L150.768 85.4258L149.571 86.3976L146.241 82.2944C145.731 81.6668 145.147 80.877 144.489 79.9249L144.445 79.9603L145.55 89.6619L144.026 90.8988L137.568 82.9427Z" fill="white" fill-opacity="0.28"/>
<path d="M102.667 190.019L101.138 191.26L94.5885 189.887L97.8617 193.919L96.561 194.975L90.1031 187.019L91.4037 185.963L94.5311 189.816L94.6253 183.348L96.0511 182.191L95.9589 188.639L102.667 190.019Z" fill="white" fill-opacity="0.28"/>
<path d="M104.485 179.335C105.159 180.166 105.404 181.024 105.219 181.908C105.034 182.792 104.439 183.642 103.434 184.458L102.607 185.129L105.023 188.106L103.723 189.162L97.2646 181.206L99.5556 179.346C100.55 178.539 101.458 178.139 102.282 178.145C103.108 178.147 103.843 178.544 104.485 179.335ZM101.719 184.036L102.41 183.475C103.078 182.933 103.473 182.419 103.597 181.934C103.72 181.448 103.582 180.959 103.181 180.465C102.81 180.008 102.394 179.781 101.932 179.782C101.47 179.784 100.943 180.025 100.352 180.505L99.4487 181.238L101.719 184.036Z" fill="white" fill-opacity="0.28"/>
<path d="M115.515 179.59L112.927 178.025L109.885 180.494L110.9 183.336L109.529 184.449L106.021 174.044L107.436 172.895L116.897 178.468L115.515 179.59ZM111.674 177.183L109.171 175.622C108.999 175.521 108.737 175.354 108.386 175.122C108.038 174.886 107.787 174.711 107.633 174.595C107.898 175.121 108.15 175.725 108.392 176.408L109.356 179.064L111.674 177.183Z" fill="white" fill-opacity="0.28"/>
<path d="M115.687 167.913C114.94 168.52 114.567 169.262 114.569 170.139C114.571 171.016 114.95 171.921 115.707 172.853C116.499 173.829 117.303 174.401 118.12 174.569C118.94 174.734 119.74 174.5 120.52 173.866C120.857 173.593 121.157 173.295 121.42 172.973C121.679 172.648 121.937 172.295 122.193 171.913L123.098 173.028C122.666 173.771 122.054 174.463 121.263 175.105C120.098 176.05 118.919 176.424 117.723 176.227C116.525 176.026 115.393 175.269 114.327 173.955C113.655 173.128 113.219 172.282 113.016 171.417C112.817 170.55 112.87 169.718 113.176 168.923C113.481 168.127 114.02 167.416 114.793 166.789C115.605 166.129 116.495 165.69 117.461 165.471L117.872 166.934C117.5 167.025 117.126 167.146 116.748 167.296C116.371 167.439 116.017 167.645 115.687 167.913Z" fill="white" fill-opacity="0.28"/>
<path d="M128.837 162.159C129.888 163.454 130.381 164.725 130.314 165.97C130.252 167.213 129.627 168.315 128.441 169.278C127.24 170.253 126.028 170.647 124.805 170.46C123.583 170.267 122.439 169.513 121.373 168.2C120.307 166.887 119.811 165.616 119.885 164.388C119.964 163.157 120.603 162.054 121.804 161.079C122.987 160.119 124.191 159.735 125.417 159.925C126.643 160.116 127.783 160.86 128.837 162.159ZM122.764 167.089C123.559 168.068 124.36 168.652 125.168 168.839C125.973 169.022 126.763 168.798 127.54 168.168C128.313 167.541 128.692 166.818 128.677 165.999C128.666 165.178 128.259 164.272 127.455 163.281C126.663 162.305 125.866 161.724 125.065 161.538C124.267 161.349 123.482 161.568 122.709 162.195C121.929 162.828 121.545 163.559 121.555 164.387C121.569 165.212 121.972 166.113 122.764 167.089Z" fill="white" fill-opacity="0.28"/>
<path d="M136.532 162.53L135.231 163.586L129.679 156.746L127.339 158.645L126.433 157.53L132.414 152.675L133.319 153.791L130.979 155.69L136.532 162.53Z" fill="white" fill-opacity="0.28"/>
<path d="M145.032 155.631L142.444 154.066L139.402 156.535L140.417 159.377L139.046 160.49L135.538 150.085L136.953 148.936L146.414 154.509L145.032 155.631ZM141.191 153.223L138.688 151.663C138.515 151.562 138.254 151.395 137.903 151.163C137.555 150.927 137.304 150.752 137.15 150.636C137.414 151.162 137.667 151.766 137.908 152.449L138.873 155.105L141.191 153.223Z" fill="white" fill-opacity="0.28"/>
<path d="M91.8218 92.9093C92.2429 93.4281 92.4151 93.9924 92.3385 94.6023C92.2654 95.2093 91.9628 95.804 91.4305 96.3865L91.457 96.4191C92.2213 95.9372 92.9189 95.714 93.5496 95.7497C94.1811 95.7788 94.7118 96.0582 95.1417 96.5878C95.7425 97.3279 95.9219 98.1422 95.6801 99.0305C95.4419 99.916 94.8131 100.772 93.7937 101.6C92.7343 102.46 91.7709 103.004 90.9033 103.233L89.9801 102.096C90.4675 101.977 90.9657 101.786 91.4746 101.523C91.9872 101.258 92.4249 100.978 92.7877 100.683C94.1845 99.5494 94.5118 98.5255 93.7697 97.6112C93.4281 97.1904 92.9571 97.0401 92.3566 97.1604C91.7598 97.2777 91.0496 97.6707 90.226 98.3391L89.2683 99.1166L88.4202 98.0717L89.3181 97.3429C90.9035 96.056 91.3531 94.9899 90.667 94.1446C90.3931 93.8072 90.0406 93.651 89.6095 93.6759C89.182 93.6979 88.7252 93.9062 88.2391 94.3008C87.8545 94.613 87.5293 94.9612 87.2635 95.3455C86.9976 95.7298 86.7765 96.1951 86.6002 96.7415L85.2914 96.3414C85.6483 95.1129 86.38 94.0495 87.4865 93.1513C88.3282 92.4681 89.1397 92.1073 89.921 92.069C90.7023 92.0306 91.3359 92.3107 91.8218 92.9093Z" fill="white" fill-opacity="0.28"/>
<path d="M96.6799 97.226L97.2948 96.7269C97.0405 95.3385 96.6052 93.9014 95.9889 92.4156C95.3727 90.9298 94.6265 89.5434 93.7504 88.2565L97.859 84.9215L103.411 91.7619L104.44 90.9271L107.126 94.2357L105.874 95.2517L104.094 93.0586L98.837 97.3257L100.617 99.5187L99.3655 100.535L96.6799 97.226ZM95.7531 88.4995C96.3418 89.3878 96.9146 90.5087 97.4715 91.8621C98.0255 93.2119 98.4237 94.4624 98.6661 95.6138L102.111 92.8177L97.4728 87.1037L95.7531 88.4995Z" fill="white" fill-opacity="0.28"/>
<path d="M110.461 81.2733C111.512 82.5685 112.005 83.8388 111.938 85.0843C111.876 86.3268 111.251 87.4295 110.065 88.3925C108.864 89.3672 107.652 89.7611 106.429 89.5742C105.207 89.3807 104.063 88.6273 102.997 87.314C101.931 86.0007 101.435 84.7301 101.509 83.5021C101.588 82.2711 102.227 81.1683 103.428 80.1936C104.611 79.2336 105.815 78.8488 107.041 79.0393C108.267 79.2299 109.407 79.9745 110.461 81.2733ZM104.388 86.2029C105.183 87.1825 105.984 87.7657 106.792 87.9526C107.597 88.1359 108.387 87.9125 109.164 87.2823C109.937 86.6551 110.316 85.9321 110.301 85.1134C110.29 84.2918 109.883 83.3857 109.079 82.3953C108.287 81.4194 107.49 80.8383 106.689 80.6521C105.891 80.4629 105.106 80.6819 104.333 81.3092C103.553 81.9423 103.169 82.673 103.179 83.5012C103.193 84.3264 103.596 85.227 104.388 86.2029Z" fill="white" fill-opacity="0.28"/>
<path d="M116.17 74.0486C116.844 74.8794 117.089 75.737 116.904 76.6213C116.719 77.5056 116.124 78.3557 115.119 79.1714L114.292 79.8428L116.708 82.8195L115.408 83.8752L108.95 75.9192L111.241 74.0595C112.235 73.2527 113.143 72.8521 113.967 72.858C114.793 72.8609 115.528 73.2577 116.17 74.0486ZM113.404 78.749L114.095 78.188C114.763 77.6461 115.158 77.1325 115.282 76.6471C115.405 76.1616 115.267 75.6722 114.866 75.1788C114.495 74.7217 114.079 74.494 113.617 74.4958C113.155 74.4977 112.628 74.7386 112.037 75.2186L111.134 75.9518L113.404 78.749Z" fill="white" fill-opacity="0.28"/>
<path d="M126.09 68.5871C127.141 69.8822 127.634 71.1526 127.568 72.398C127.505 73.6405 126.88 74.7432 125.694 75.7062C124.493 76.6809 123.281 77.0748 122.058 76.888C120.836 76.6945 119.692 75.9411 118.626 74.6278C117.56 73.3145 117.064 72.0438 117.139 70.8158C117.217 69.5849 117.856 68.482 119.057 67.5073C120.24 66.5473 121.444 66.1626 122.67 66.3531C123.896 66.5436 125.036 67.2883 126.09 68.5871ZM120.017 73.5167C120.812 74.4962 121.613 75.0795 122.421 75.2664C123.226 75.4497 124.017 75.2262 124.793 74.5961C125.566 73.9688 125.945 73.2458 125.93 72.4271C125.919 71.6055 125.512 70.6995 124.708 69.709C123.916 68.7331 123.119 68.1521 122.318 67.9658C121.52 67.7766 120.735 67.9957 119.963 68.6229C119.183 69.256 118.798 69.9867 118.808 70.8149C118.822 71.6402 119.225 72.5408 120.017 73.5167Z" fill="white" fill-opacity="0.28"/>
<path d="M124.579 63.2329L126.94 61.3159C128.036 60.4265 128.957 59.9442 129.702 59.8688C130.451 59.7905 131.105 60.096 131.665 60.7854C132.041 61.2497 132.235 61.7333 132.246 62.236C132.257 62.7387 132.07 63.2126 131.685 63.6576L131.729 63.712C132.373 63.3637 132.952 63.2395 133.467 63.3395C133.982 63.4329 134.455 63.7444 134.885 64.2741C135.465 64.9888 135.669 65.7525 135.498 66.5652C135.328 67.3714 134.799 68.1352 133.91 68.8567L131.037 71.189L124.579 63.2329ZM128.547 65.4641L129.799 64.4482C130.343 64.0064 130.671 63.5987 130.783 63.225C130.892 62.8477 130.779 62.4522 130.443 62.0386C130.14 61.665 129.784 61.5051 129.377 61.5591C128.973 61.6101 128.477 61.8742 127.889 62.3512L126.763 63.2656L128.547 65.4641ZM129.404 66.5198L131.449 69.0394L132.832 67.9175C133.376 67.4757 133.702 67.0396 133.81 66.609C133.918 66.1718 133.79 65.7283 133.425 65.2784C133.089 64.8648 132.699 64.6731 132.254 64.7033C131.809 64.7335 131.298 64.9826 130.721 65.4509L129.404 66.5198Z" fill="white" fill-opacity="0.28"/>
<path d="M141.996 58.3213C142.629 59.1013 142.849 59.9098 142.656 60.7467C142.463 61.5771 141.87 62.3958 140.876 63.2026L138.394 65.2169L131.936 57.2608L133.237 56.2051L135.861 59.4376L136.987 58.5232C137.996 57.7046 138.93 57.2802 139.79 57.25C140.651 57.2132 141.386 57.5703 141.996 58.3213ZM138.807 63.0674L139.901 62.1795C140.485 61.7054 140.85 61.2401 140.997 60.7837C141.145 60.3207 141.034 59.8606 140.663 59.4035C140.315 58.9754 139.91 58.7838 139.447 58.8287C138.984 58.8736 138.398 59.1832 137.691 59.7574L136.744 60.526L138.807 63.0674Z" fill="white" fill-opacity="0.28"/>
<path d="M150.034 55.7685L145.534 59.4215L139.076 51.4654L143.576 47.8124L144.469 48.9117L141.269 51.509L143.027 53.6749L146.025 51.241L146.909 52.3294L143.91 54.7632L145.938 57.2611L149.138 54.6637L150.034 55.7685Z" fill="white" fill-opacity="0.28"/>
<path d="M91.4382 155.54C92.4895 156.835 92.982 158.105 92.9157 159.351C92.853 160.593 92.2285 161.696 91.0421 162.659C89.8413 163.634 88.6294 164.028 87.4064 163.841C86.1842 163.647 85.04 162.894 83.974 161.581C82.908 160.267 82.4122 158.997 82.4867 157.769C82.5648 156.538 83.2043 155.435 84.4051 154.46C85.5878 153.5 86.7921 153.115 88.018 153.306C89.2439 153.496 90.384 154.241 91.4382 155.54ZM85.3651 160.47C86.1602 161.449 86.9616 162.032 87.7693 162.219C88.5741 162.403 89.3646 162.179 90.141 161.549C90.9138 160.922 91.2929 160.199 91.2783 159.38C91.2673 158.558 90.8599 157.652 90.056 156.662C89.2638 155.686 88.4672 155.105 87.666 154.919C86.8685 154.73 86.0834 154.949 85.3106 155.576C84.5306 156.209 84.1457 156.94 84.156 157.768C84.1699 158.593 84.5729 159.494 85.3651 160.47Z" fill="white" fill-opacity="0.28"/>
<path d="M102.659 153.049L101.353 154.109L98.4423 150.523L94.7745 153.5L97.6854 157.086L96.3848 158.142L89.9268 150.186L91.2274 149.13L93.8689 152.384L97.5368 149.407L94.8953 146.153L96.2013 145.093L102.659 153.049Z" fill="white" fill-opacity="0.28"/>
<path d="M110.724 146.502L109.424 147.558L103.871 140.718L101.607 142.555C103.205 145.11 104.257 146.877 104.764 147.856C105.273 148.833 105.506 149.613 105.462 150.196C105.415 150.776 105.13 151.269 104.606 151.677C104.341 151.891 104.052 152.051 103.739 152.154L102.86 151.072C103.14 150.994 103.378 150.876 103.574 150.717C103.835 150.505 103.912 150.184 103.804 149.755C103.696 149.318 103.294 148.492 102.596 147.277C101.903 146.059 100.91 144.406 99.6188 142.319L104.266 138.546L110.724 146.502Z" fill="white" fill-opacity="0.28"/>
<path d="M117.766 140.787L115.178 139.222L112.136 141.691L113.151 144.532L111.78 145.646L108.272 135.241L109.687 134.092L119.148 139.665L117.766 140.787ZM113.925 138.379L111.422 136.819C111.249 136.718 110.988 136.551 110.637 136.318C110.289 136.083 110.038 135.907 109.884 135.792C110.148 136.318 110.401 136.922 110.642 137.605L111.607 140.261L113.925 138.379Z" fill="white" fill-opacity="0.28"/>
<path d="M113.741 130.856L114.932 129.889L118.289 134.025C118.64 134.456 118.984 134.902 119.321 135.363C119.656 135.819 119.881 136.13 119.997 136.295L120.046 136.255L118.965 126.616L120.483 125.383L126.941 133.339L125.744 134.311L122.413 130.208C121.904 129.58 121.32 128.79 120.661 127.838L120.618 127.874L121.722 137.575L120.199 138.812L113.741 130.856ZM116.636 127.45C115.867 128.074 115.191 128.394 114.608 128.41C114.025 128.419 113.451 128.115 112.884 127.498L114.043 126.557C114.277 126.801 114.49 126.964 114.684 127.048C114.882 127.128 115.08 127.142 115.278 127.089C115.477 127.03 115.727 126.879 116.028 126.634C116.383 126.346 116.59 126.048 116.649 125.742C116.704 125.432 116.605 125.08 116.35 124.685L117.531 123.726C117.983 124.394 118.135 125.029 117.986 125.632C117.837 126.234 117.387 126.84 116.636 127.45Z" fill="white" fill-opacity="0.28"/>
<path d="M135.3 126.554L133.994 127.614L131.083 124.028L127.415 127.005L130.326 130.592L129.025 131.647L122.567 123.691L123.868 122.636L126.509 125.89L130.177 122.913L127.536 119.658L128.842 118.598L135.3 126.554Z" fill="white" fill-opacity="0.28"/>
<path d="M168.834 86.1361L170.919 93.832C171.173 94.7752 171.298 95.5074 171.294 96.0285C171.287 96.5459 171.172 97.0156 170.948 97.4376C170.729 97.8566 170.378 98.2619 169.895 98.6535C169.474 98.9951 169.04 99.2573 168.593 99.44L167.643 98.27C168.113 98.1229 168.543 97.8918 168.931 97.5767C169.261 97.3087 169.472 97.0051 169.564 96.6658C169.656 96.32 169.622 95.863 169.462 95.295L161.798 91.8476L163.202 90.7079L168.382 93.1199C168.863 93.3558 169.175 93.5211 169.318 93.6157L169.372 93.5715C169.317 93.4595 169.249 93.2648 169.169 92.9873L167.474 87.2404L168.834 86.1361Z" fill="white" fill-opacity="0.28"/>
<path d="M174.088 83.5329C173.34 84.1396 172.967 84.8815 172.969 85.7587C172.971 86.6358 173.35 87.5406 174.107 88.473C174.899 89.4489 175.704 90.0208 176.52 90.1887C177.34 90.3536 178.14 90.1195 178.92 89.4864C179.257 89.2125 179.557 88.9148 179.82 88.5933C180.08 88.2682 180.337 87.9146 180.593 87.5326L181.499 88.6482C181.066 89.3905 180.454 90.0827 179.663 90.7246C178.499 91.6699 177.319 92.0439 176.124 91.8466C174.925 91.6457 173.793 90.8885 172.727 89.5752C172.056 88.748 171.619 87.9021 171.416 87.0373C171.218 86.1695 171.271 85.3379 171.576 84.5425C171.881 83.7471 172.42 83.0358 173.193 82.4085C174.006 81.7489 174.895 81.3098 175.861 81.0913L176.272 82.5542C175.901 82.6451 175.526 82.7656 175.148 82.9157C174.771 83.0592 174.418 83.265 174.088 83.5329Z" fill="white" fill-opacity="0.28"/>
<path d="M189.381 82.656L188.081 83.7117L182.528 76.8712L180.264 78.7088C181.862 81.2633 182.915 83.0302 183.421 84.0097C183.93 84.9861 184.163 85.766 184.119 86.3494C184.072 86.9292 183.787 87.4227 183.263 87.83C182.998 88.045 182.709 88.2043 182.396 88.3079L181.517 87.225C181.797 87.1479 182.035 87.0298 182.231 86.8707C182.493 86.6587 182.569 86.3378 182.461 85.908C182.354 85.4716 181.951 84.6459 181.254 83.4306C180.56 82.2125 179.567 80.5597 178.276 78.4722L182.923 74.6999L189.381 82.656Z" fill="white" fill-opacity="0.28"/>
<path d="M191.081 68.0785L193.166 75.7744C193.42 76.7176 193.545 77.4498 193.54 77.9709C193.533 78.4883 193.418 78.958 193.195 79.38C192.975 79.7989 192.624 80.2043 192.142 80.5959C191.721 80.9375 191.287 81.1997 190.839 81.3824L189.889 80.2124C190.36 80.0653 190.789 79.8342 191.177 79.5191C191.507 79.2511 191.718 78.9475 191.81 78.6082C191.902 78.2624 191.869 77.8054 191.708 77.2374L184.044 73.79L185.448 72.6503L190.629 75.0623C191.109 75.2982 191.421 75.4635 191.564 75.5581L191.618 75.5139C191.564 75.4019 191.496 75.2072 191.415 74.9297L189.72 69.1828L191.081 68.0785Z" fill="white" fill-opacity="0.28"/>
<path d="M196.86 63.3874L197.765 64.503L194.343 67.2814L199.895 74.1219L198.594 75.1776L192.136 67.2216L196.86 63.3874Z" fill="white" fill-opacity="0.28"/>
<path d="M198.155 62.3361L199.347 61.3687L202.704 65.5046C203.054 65.9363 203.398 66.3823 203.736 66.8426C204.07 67.2992 204.296 67.61 204.411 67.7748L204.46 67.735L203.379 58.0956L204.898 56.8632L211.356 64.8192L210.158 65.791L206.828 61.6878C206.318 61.0602 205.734 60.2703 205.076 59.3183L205.032 59.3536L206.137 69.0553L204.613 70.2922L198.155 62.3361Z" fill="white" fill-opacity="0.28"/>
<path d="M159.964 165.359L158.435 166.601L151.886 165.227L155.159 169.26L153.859 170.316L147.401 162.36L148.701 161.304L151.829 165.157L151.923 158.689L153.349 157.532L153.257 163.98L159.964 165.359Z" fill="white" fill-opacity="0.28"/>
<path d="M161.782 154.676C162.457 155.507 162.701 156.364 162.517 157.249C162.332 158.133 161.737 158.983 160.732 159.799L159.905 160.47L162.321 163.447L161.02 164.503L154.562 156.546L156.853 154.687C157.847 153.88 158.756 153.479 159.579 153.485C160.406 153.488 161.14 153.885 161.782 154.676ZM159.017 159.376L159.708 158.815C160.375 158.273 160.771 157.76 160.894 157.274C161.018 156.789 160.879 156.3 160.479 155.806C160.108 155.349 159.691 155.121 159.23 155.123C158.768 155.125 158.241 155.366 157.65 155.846L156.746 156.579L159.017 159.376Z" fill="white" fill-opacity="0.28"/>
<path d="M172.813 154.93L170.225 153.366L167.183 155.835L168.198 158.676L166.827 159.789L163.319 149.384L164.734 148.236L174.195 153.808L172.813 154.93ZM168.972 152.523L166.468 150.962C166.296 150.862 166.035 150.695 165.683 150.462C165.336 150.227 165.085 150.051 164.931 149.936C165.195 150.461 165.448 151.066 165.689 151.748L166.654 154.405L168.972 152.523Z" fill="white" fill-opacity="0.28"/>
<path d="M172.985 143.254C172.238 143.86 171.865 144.602 171.867 145.479C171.869 146.357 172.248 147.261 173.005 148.194C173.797 149.17 174.601 149.741 175.417 149.909C176.237 150.074 177.037 149.84 177.817 149.207C178.155 148.933 178.455 148.636 178.717 148.314C178.977 147.989 179.235 147.635 179.49 147.253L180.396 148.369C179.963 149.111 179.352 149.803 178.561 150.445C177.396 151.391 176.216 151.765 175.021 151.567C173.823 151.366 172.69 150.609 171.624 149.296C170.953 148.469 170.516 147.623 170.314 146.758C170.115 145.89 170.168 145.059 170.473 144.263C170.779 143.468 171.318 142.756 172.09 142.129C172.903 141.47 173.792 141.031 174.758 140.812L175.169 142.275C174.798 142.366 174.423 142.486 174.046 142.636C173.669 142.78 173.315 142.986 172.985 143.254Z" fill="white" fill-opacity="0.28"/>
<path d="M186.135 137.5C187.186 138.795 187.678 140.065 187.612 141.311C187.549 142.553 186.925 143.656 185.739 144.619C184.538 145.594 183.326 145.988 182.103 145.801C180.881 145.607 179.736 144.854 178.67 143.541C177.604 142.227 177.109 140.957 177.183 139.729C177.261 138.498 177.901 137.395 179.101 136.42C180.284 135.46 181.488 135.075 182.714 135.266C183.94 135.456 185.08 136.201 186.135 137.5ZM180.061 142.43C180.857 143.409 181.658 143.992 182.466 144.179C183.27 144.363 184.061 144.139 184.837 143.509C185.61 142.882 185.989 142.159 185.975 141.34C185.964 140.518 185.556 139.612 184.752 138.622C183.96 137.646 183.164 137.065 182.362 136.879C181.565 136.689 180.78 136.908 180.007 137.536C179.227 138.169 178.842 138.9 178.852 139.728C178.866 140.553 179.269 141.454 180.061 142.43Z" fill="white" fill-opacity="0.28"/>
<path d="M193.829 137.871L192.529 138.927L186.976 132.086L184.636 133.986L183.731 132.87L189.711 128.016L190.617 129.131L188.277 131.031L193.829 137.871Z" fill="white" fill-opacity="0.28"/>
<path d="M202.33 130.971L199.742 129.407L196.7 131.876L197.715 134.717L196.343 135.83L192.836 125.425L194.251 124.277L203.712 129.849L202.33 130.971ZM198.489 128.564L195.985 127.003C195.813 126.903 195.551 126.736 195.2 126.503C194.853 126.268 194.602 126.092 194.448 125.977C194.712 126.502 194.965 127.107 195.206 127.789L196.171 130.446L198.489 128.564Z" fill="white" fill-opacity="0.28"/>
</svg>
